<svg width="24" height="22" viewBox="0 0 24 22" fill="none" xmlns="http://www.w3.org/2000/svg">
<g clip-path="url(#clip0_102_32)">
<path d="M22.8223 19.822C22.8738 19.8225 22.9249 19.8126 22.9723 19.7927C23.0197 19.7729 23.0626 19.7436 23.0981 19.7067C23.1336 19.6698 23.1611 19.6261 23.1789 19.5782C23.1966 19.5303 23.2043 19.4794 23.2013 19.4285C23.2013 19.1494 23.0312 19.016 22.6823 19.016H22.1185V20.4773H22.3306V19.8403H22.5911L22.5971 19.8481L23.0015 20.4773H23.2283L22.7932 19.8261L22.8223 19.822ZM22.5771 19.6756H22.3312V19.1816H22.6428C22.8038 19.1816 22.9874 19.2077 22.9874 19.4164C22.9874 19.6564 22.8016 19.6756 22.5758 19.6756" fill="#0A66C2"/>
<path d="M17.2909 17.9907H14.284V13.3282C14.284 12.2163 14.2639 10.7851 12.7201 10.7851C11.154 10.7851 10.9144 11.9965 10.9144 13.2472V17.9904H7.90749V8.40232H10.7941V9.71263H10.8345C11.1234 9.22356 11.5408 8.82124 12.0424 8.54849C12.5439 8.27575 13.1108 8.14281 13.6826 8.16383C16.7302 8.16383 17.2921 10.1487 17.2921 12.7308L17.2909 17.9907ZM4.51472 7.0917C4.16961 7.09176 3.83221 6.99049 3.54523 6.80069C3.25824 6.6109 3.03455 6.3411 2.90243 6.02542C2.7703 5.70973 2.73567 5.36235 2.80294 5.02719C2.87021 4.69202 3.03635 4.38414 3.28034 4.14247C3.52433 3.90079 3.83522 3.73618 4.17369 3.66946C4.51216 3.60273 4.86301 3.63688 5.18188 3.7676C5.50075 3.89831 5.77331 4.11971 5.96509 4.4038C6.15688 4.6879 6.25929 5.02192 6.25935 5.36364C6.25939 5.59053 6.21429 5.81521 6.12663 6.02484C6.03898 6.23448 5.9105 6.42497 5.74849 6.58543C5.58649 6.7459 5.39414 6.8732 5.18245 6.96006C4.97076 7.04693 4.74387 7.09166 4.51472 7.0917ZM6.01816 17.9907H3.00815V8.40232H6.01816V17.9907ZM18.7899 0.871364H1.49719C1.10469 0.866978 0.726477 1.01706 0.445682 1.28864C0.164887 1.56021 0.00448503 1.93106 -0.000305176 2.31968V19.5131C0.00432108 19.902 0.164629 20.2731 0.445415 20.5449C0.7262 20.8168 1.1045 20.9671 1.49719 20.963H18.7899C19.1834 20.9679 19.5628 20.8179 19.8447 20.5461C20.1265 20.2743 20.2879 19.9027 20.2934 19.5131V2.31844C20.2878 1.92905 20.1263 1.55778 19.8444 1.28621C19.5625 1.01464 19.1832 0.864987 18.7899 0.870123" fill="#0A66C2"/>
<path d="M22.6027 18.365C22.2369 18.3685 21.8873 18.5153 21.6305 18.7733C21.3737 19.0312 21.2305 19.3794 21.2323 19.7417C21.234 20.1039 21.3806 20.4507 21.6399 20.7063C21.8992 20.9618 22.2502 21.1053 22.616 21.1053C22.9819 21.1053 23.3329 20.9618 23.5922 20.7063C23.8515 20.4507 23.9981 20.1039 23.9998 19.7417C24.0016 19.3794 23.8584 19.0312 23.6016 18.7733C23.3448 18.5153 22.9952 18.3685 22.6293 18.365H22.6027ZM22.6027 20.9484C22.3628 20.9523 22.127 20.8858 21.9253 20.757C21.7236 20.6283 21.5649 20.4433 21.4694 20.2253C21.3739 20.0073 21.3458 19.7662 21.3887 19.5324C21.4316 19.2986 21.5435 19.0826 21.7104 18.9118C21.8772 18.741 22.0915 18.623 22.326 18.5728C22.5606 18.5226 22.805 18.5423 23.0282 18.6296C23.2514 18.7169 23.4435 18.8677 23.5801 19.0631C23.7167 19.2584 23.7918 19.4895 23.7958 19.7271C23.7958 19.7339 23.7958 19.7404 23.7958 19.7473C23.8025 20.0589 23.6839 20.3605 23.4661 20.5856C23.2483 20.8108 22.9491 20.941 22.6344 20.9478H22.603" fill="#0A66C2"/>
</g>
<defs>
<clipPath id="clip0_102_32">
<rect width="24" height="20.2597" fill="white" transform="translate(0 0.870117)"/>
</clipPath>
</defs>
</svg>
