<svg width="24" height="20" viewBox="0 0 24 20" fill="none" xmlns="http://www.w3.org/2000/svg">
<g clip-path="url(#clip0_102_39)">
<path d="M21.4791 5.08299C21.4936 5.2934 21.4936 5.5038 21.4936 5.71615C21.4936 12.1864 16.5774 19.6486 7.58809 19.6486V19.6447C4.93261 19.6486 2.33229 18.8865 0.0968018 17.4495C0.482931 17.496 0.870995 17.5193 1.26003 17.5203C3.46067 17.5222 5.59841 16.7824 7.3297 15.4201C5.23841 15.3803 3.40454 14.0141 2.7639 12.0196C3.49648 12.1612 4.25132 12.1321 4.97035 11.9353C2.69035 11.4737 1.05003 9.46664 1.05003 7.13567C1.05003 7.11434 1.05003 7.09398 1.05003 7.07362C1.72938 7.45274 2.49003 7.66315 3.26809 7.68642C1.12067 6.24847 0.458737 3.38616 1.75551 1.14828C4.2368 4.20742 7.89777 6.06715 11.8278 6.26399C11.4339 4.56327 11.972 2.78112 13.2416 1.58558C15.21 -0.268335 18.3058 -0.173312 20.1562 1.79792C21.2507 1.5817 22.2997 1.17931 23.2597 0.60917C22.8949 1.74265 22.1313 2.70549 21.1113 3.31732C22.08 3.2029 23.0265 2.94304 23.9178 2.54647C23.2616 3.5316 22.4352 4.38971 21.4791 5.08299Z" fill="#1D9BF0"/>
</g>
<defs>
<clipPath id="clip0_102_39">
<rect width="24" height="19.7802" fill="white" transform="translate(0 0.109863)"/>
</clipPath>
</defs>
</svg>
